<?xml version="1.0" encoding="utf-8"?>
<!-- Generator: Adobe Illustrator 21.0.0, SVG Export Plug-In . SVG Version: 6.00 Build 0)  -->
<svg version="1.1" id="Layer_1" xmlns="http://www.w3.org/2000/svg" xmlns:xlink="http://www.w3.org/1999/xlink" x="0px" y="0px"
	 viewBox="0 0 50 50" style="enable-background:new 0 0 50 50;" xml:space="preserve">
<style type="text/css">
	.st0{fill:none;stroke:#DE9849;stroke-miterlimit:10;}
</style>
<path class="st0" d="M38.5,47.2H9.6c0,0-7.7,0.1-7.7-7.7c0-7.8,0-35.7,0-35.7"/>
<path class="st0" d="M48.1,39.5c0,7.7-6.7,7.7-6.7,7.7s-7.7,0-7.7-7.7s0-35.7,0-35.7H1.9c0,0,0,27.9,0,35.7c0,7.8,7.7,7.7,7.7,7.7
	h30.8"/>
<path class="st0" d="M40.4,38.6V14.4c0,0,0.1-3.8,3.8-3.8s3.8,3.9,3.8,3.9v25.1"/>
<line class="st0" x1="44.2" y1="10.5" x2="34.8" y2="10.5"/>
<line class="st0" x1="7.7" y1="28" x2="14.5" y2="28"/>
<line class="st0" x1="7.7" y1="24" x2="14.5" y2="24"/>
<line class="st0" x1="7.7" y1="32" x2="14.5" y2="32"/>
<line class="st0" x1="7.7" y1="36" x2="14.5" y2="36"/>
<line class="st0" x1="7.7" y1="40" x2="14.5" y2="40"/>
<line class="st0" x1="19.2" y1="28" x2="26.9" y2="28"/>
<line class="st0" x1="19.2" y1="24" x2="26.9" y2="24"/>
<line class="st0" x1="7.2" y1="16" x2="26.9" y2="16"/>
<line class="st0" x1="7.2" y1="12" x2="26.9" y2="12"/>
<line class="st0" x1="19.2" y1="31.8" x2="26.9" y2="31.8"/>
<line class="st0" x1="19.2" y1="35.8" x2="26.9" y2="35.8"/>
<line class="st0" x1="19.2" y1="39.5" x2="26.9" y2="39.5"/>
</svg>
